<?xml version="1.0" encoding="utf-8"?>
<!-- Generator: Adobe Illustrator 23.0.1, SVG Export Plug-In . SVG Version: 6.00 Build 0)  -->
<svg version="1.1" id="Layer_1" xmlns="http://www.w3.org/2000/svg" xmlns:xlink="http://www.w3.org/1999/xlink" x="0px" y="0px"
width="300px" height="80px" viewBox="0 0 300 80" style="enable-background:new 0 0 300 80;" xml:space="preserve">
<g>
<g>
<path style="fill:#FFFFFF;" d="M107.1,12.9h1.8c5.2,0,9.8,2.3,13.6,7c-0.1,0.2-2.3,2.4-6.6,6.6h-0.2c-2.4-2.8-4.9-4.2-7.4-4.2
c-4.1,0-6.5,1.5-7.2,4.5v0.3c0,3,4.6,6.4,13.9,10.1c3.5,1.9,5.9,3.6,7,5.1c1.8,2.6,2.7,5.5,2.7,8.8c0,5-2,9.3-6.1,12.9
c-3,2.1-6.4,3.2-10.4,3.2c-9.4,0-15.9-3.1-19.7-9.4l7.5-6.7c3.8,4.3,7.3,6.4,10.6,6.4c5.3,0,8-2,8-5.9c0-3-4.4-6.3-13.1-9.8
c-2.3-1.1-4.4-2.7-6.4-4.6c-2-2.2-3-4.4-3.2-6.4c2-2.5,4.1-3.7,6.2-3.7V27h-6.2c-0.2,0-0.3-0.1-0.3-0.3v-0.2c0-6,3-10.2,9.1-12.5
C103,13.3,105.1,12.9,107.1,12.9z"/>
<path style="fill:#FFFFFF;" d="M156,12.7h1.4c8.7,0,16.1,4.1,22.2,12.3c2.9,4.8,4.3,9.6,4.3,14.2v1.4c0,8.7-4.1,16.1-12.3,22.2
c-4.8,2.9-9.6,4.3-14.2,4.3H156c-8.7,0-16.1-4.1-22.2-12.3c-2.9-4.8-4.3-9.6-4.3-14.2v-1.4c0-8.7,4.1-16.1,12.3-22.2
C146.6,14.2,151.3,12.7,156,12.7z M138.9,40.1c0,6.3,3,11.4,9,15.3c3,1.6,5.9,2.4,9,2.4c6.3,0,11.4-3,15.3-9c1.6-3,2.4-5.9,2.4-9
c0-6.3-3-11.4-9-15.3c-3-1.6-5.9-2.4-9-2.4c-6.3,0-11.4,3-15.3,9C139.7,34.1,138.9,37.1,138.9,40.1z"/>
<path style="fill:#FFFFFF;" d="M227,12.9h9c0.2,0,0.3,0.1,0.3,0.3v53.6c0,0.2-0.1,0.3-0.3,0.3c-0.6-0.7-12.3-11.7-35-32.8h-0.2
v32.6c0,0.2-0.1,0.3-0.3,0.3h-8.8c-0.2,0-0.3-0.1-0.3-0.3V13.1h0.2l35.2,32.6h0.2c0-1,1.5-2.2,4.6-3.5c0.7-0.2,1.2-0.3,1.6-0.3
v-0.2H227c-0.2,0-0.3-0.1-0.3-0.3V13.2C226.8,13,226.9,12.9,227,12.9z"/>
<path style="fill:#FFFFFF;" d="M269.5,12.9h1c7.1,0,13.4,2.7,18.7,8c-0.1,0.2-2.3,2.4-6.6,6.6c-3.7-3.5-7.9-5.3-12.6-5.3
c-6.4,0-11.5,3-15.5,9c-1.6,3-2.4,6-2.4,9c0,7,3.5,12.4,10.4,16.3c2.9,1.1,5.4,1.6,7.5,1.6c3.1,0,6.3-0.9,9.6-2.7v-6.7
c2-2.1,4-3.2,5.9-3.2v-0.2h-14.1c-0.2,0-0.3-0.1-0.3-0.3v-9c0-0.2,0.1-0.3,0.3-0.3h17.4c0.2,0,0.3,0.1,0.3,0.3v23.3
c-5.3,5.3-11.6,8-18.7,8h-1c-9.6,0-17.5-4.7-23.5-14.1c-2.1-4.3-3.2-8.6-3.2-12.6v-1c0-9.6,4.7-17.5,14.1-23.5
C261.2,14,265.4,12.9,269.5,12.9z"/>
</g>
<g>
<g>
<path style="fill:#FFFFFF;" d="M10.8,37.7h19.6v3.3h-8.1v22.7h-3.4V40.9h-8.1V37.7z"/>
<path style="fill:#FFFFFF;" d="M34.4,37.7h3.4v11.6h14.4V37.7h3.5v25.9h-3.5V52.4H37.9v11.2h-3.4V37.7z"/>
<path style="fill:#FFFFFF;" d="M62.9,37.7h17.5v3.2h-14v8h12.5v3.2H66.4v8.3h14.4v3.2H62.9V37.7z"/>
</g>
</g>
</g>
</svg>
