<?xml version="1.0" encoding="utf-8"?>
<!-- Generator: Adobe Illustrator 23.0.1, SVG Export Plug-In . SVG Version: 6.00 Build 0)  -->
<svg version="1.1" id="Layer_1" xmlns="http://www.w3.org/2000/svg" xmlns:xlink="http://www.w3.org/1999/xlink" x="0px" y="0px"
	 width="200px" height="170px" viewBox="0 0 200 170" style="enable-background:new 0 0 200 170;" xml:space="preserve">
<g>
	<path style="fill:#253760;" d="M71.9,123.2h1.2c3.4,0,6.4,1.5,8.9,4.6c-0.1,0.1-1.5,1.6-4.3,4.3h-0.1c-1.6-1.8-3.2-2.7-4.8-2.7
		c-2.7,0-4.3,1-4.7,2.9v0.2c0,2,3,4.2,9.1,6.6c2.3,1.2,3.8,2.3,4.6,3.3c1.2,1.7,1.8,3.6,1.8,5.8c0,3.2-1.3,6.1-4,8.5
		c-2,1.4-4.2,2.1-6.8,2.1c-6.1,0-10.4-2.1-12.9-6.2l4.9-4.4c2.5,2.8,4.8,4.2,6.9,4.2c3.5,0,5.2-1.3,5.2-3.9c0-2-2.9-4.1-8.6-6.4
		c-1.5-0.7-2.9-1.8-4.2-3c-1.3-1.5-2-2.9-2.1-4.2c1.3-1.6,2.6-2.4,4.1-2.4v-0.1H62c-0.1,0-0.2-0.1-0.2-0.2v-0.1c0-3.9,2-6.6,6-8.2
		C69.2,123.4,70.6,123.2,71.9,123.2z"/>
	<path style="fill:#253760;" d="M103.9,123.1h0.9c5.7,0,10.5,2.7,14.5,8.1c1.9,3.2,2.8,6.3,2.8,9.3v0.9c0,5.7-2.7,10.5-8.1,14.5
		c-3.2,1.9-6.3,2.8-9.3,2.8h-0.9c-5.7,0-10.5-2.7-14.5-8.1c-1.9-3.2-2.8-6.3-2.8-9.3v-0.9c0-5.7,2.7-10.5,8.1-14.5
		C97.8,124,100.9,123.1,103.9,123.1z M92.7,141c0,4.1,2,7.5,5.9,10c1.9,1,3.9,1.6,5.9,1.6c4.1,0,7.5-2,10-5.9c1-1.9,1.6-3.9,1.6-5.9
		c0-4.1-2-7.5-5.9-10c-1.9-1-3.9-1.6-5.9-1.6c-4.1,0-7.5,2-10,5.9C93.2,137.1,92.7,139,92.7,141z"/>
	<path style="fill:#253760;" d="M150.4,123.2h5.9c0.1,0,0.2,0.1,0.2,0.2v35c0,0.1-0.1,0.2-0.2,0.2c-0.4-0.5-8.1-7.6-22.9-21.4h-0.1
		v21.3c0,0.1-0.1,0.2-0.2,0.2h-5.8c-0.1,0-0.2-0.1-0.2-0.2v-35.2h0.1l23,21.3h0.1c0-0.6,1-1.4,3-2.3c0.4-0.1,0.8-0.2,1-0.2V142h-4
		c-0.1,0-0.2-0.1-0.2-0.2v-18.4C150.2,123.3,150.3,123.2,150.4,123.2z"/>
	<path style="fill:#253760;" d="M178.1,123.2h0.6c4.7,0,8.7,1.7,12.2,5.2c-0.1,0.1-1.5,1.6-4.3,4.3c-2.4-2.3-5.2-3.5-8.3-3.5
		c-4.2,0-7.5,2-10.1,5.9c-1,2-1.6,3.9-1.6,5.9c0,4.5,2.3,8.1,6.8,10.7c1.9,0.7,3.5,1,4.9,1c2,0,4.1-0.6,6.3-1.8v-4.4
		c1.3-1.4,2.6-2.1,3.9-2.1v-0.1h-9.2c-0.1,0-0.2-0.1-0.2-0.2v-5.9c0-0.1,0.1-0.2,0.2-0.2h11.4c0.1,0,0.2,0.1,0.2,0.2v15.3
		c-3.5,3.5-7.6,5.2-12.2,5.2h-0.6c-6.3,0-11.4-3.1-15.4-9.2c-1.4-2.8-2.1-5.6-2.1-8.3v-0.6c0-6.3,3.1-11.4,9.2-15.4
		C172.7,123.9,175.5,123.2,178.1,123.2z"/>
	<path style="fill:#253760;" d="M9,139.4h12.8v2.1h-5.3v14.8h-2.3v-14.8H9V139.4z"/>
	<path style="fill:#253760;" d="M24.4,139.4h2.3v7.6h9.4v-7.6h2.3v17h-2.3v-7.3h-9.4v7.3h-2.3V139.4z"/>
	<path style="fill:#253760;" d="M43.1,139.4h11.4v2.1h-9.2v5.2h8.2v2.1h-8.2v5.4h9.4v2.1H43.1V139.4z"/>
</g>
<g>
	<path style="fill:#263760;" d="M138.4,105.9H59.6c-5.3,0-9.6-4.3-9.6-9.6V-0.2h98v96.4C148,101.6,143.7,105.9,138.4,105.9"/>
	<g>
		<g>
			<path style="fill:#FF7F40;" d="M87.8,53v1.4c0,0.4-0.2,0.9-0.5,1.2l-1.2,1.2l-1.2-1.2c-0.3-0.3-0.5-0.7-0.5-1.2V53l1.7,1.7
				L87.8,53z"/>
			<path style="fill:#FF7F40;" d="M78.7,58.7h1.4c0.4,0,0.9,0.2,1.2,0.5l1.2,1.2l-1.2,1.2c-0.3,0.3-0.7,0.5-1.2,0.5h-1.4l1.7-1.7
				L78.7,58.7z"/>
			<path style="fill:#FF7F40;" d="M84.4,67.8v-1.4c0-0.4,0.2-0.9,0.5-1.2l1.2-1.2l1.2,1.2c0.3,0.3,0.5,0.7,0.5,1.2v1.4l-1.7-1.7
				L84.4,67.8z"/>
			<path style="fill:#FF7F40;" d="M93.5,62.1h-1.4c-0.4,0-0.9-0.2-1.2-0.5l-1.2-1.2l1.2-1.2c0.3-0.3,0.7-0.5,1.2-0.5h1.4l-1.7,1.7
				L93.5,62.1z"/>
			<path style="fill:#FF7F40;" d="M90,66.8v-1.1c0-0.6-0.2-1.1-0.6-1.5l-2.9-2.9v1.2c0,0.6,0.2,1.1,0.7,1.5L90,66.8z"/>
			<path style="fill:#FF7F40;" d="M92.5,64.3h-1.1c-0.6,0-1.1-0.2-1.5-0.6L87,60.8h1.2c0.6,0,1.1,0.2,1.5,0.6L92.5,64.3z"/>
			<path style="fill:#FF7F40;" d="M92.5,56.5h-1.1c-0.6,0-1.1,0.2-1.5,0.6L87,60h1.2c0.6,0,1.1-0.2,1.5-0.6L92.5,56.5z"/>
			<path style="fill:#FF7F40;" d="M90,54v1.1c0,0.6-0.2,1.1-0.6,1.5l-2.9,2.9v-1.2c0-0.6,0.2-1.1,0.7-1.5L90,54z"/>
			<path style="fill:#FF7F40;" d="M82.2,66.8v-1.1c0-0.6,0.2-1.1,0.6-1.5l2.9-2.9v1.2c0,0.6-0.2,1.1-0.6,1.5L82.2,66.8z"/>
			<path style="fill:#FF7F40;" d="M79.7,64.3h1.1c0.6,0,1.1-0.2,1.5-0.6l2.9-2.9H84c-0.6,0-1.1,0.2-1.5,0.6L79.7,64.3z"/>
			<path style="fill:#FF7F40;" d="M79.7,56.5h1.1c0.6,0,1.1,0.2,1.5,0.6l2.9,2.9H84c-0.6,0-1.1-0.2-1.5-0.6L79.7,56.5z"/>
			<path style="fill:#FF7F40;" d="M82.2,54v1.1c0,0.6,0.2,1.1,0.6,1.5l2.9,2.9v-1.2c0-0.6-0.2-1.1-0.6-1.5L82.2,54z"/>
		</g>
		<g>
			<path style="fill:#FFFFFF;" d="M67.2,36.9c0.5,0,0.6,0,0.7,0.2s0.1,0.7,0.1,1.5V49c0,0.8,0,0.8-0.4,0.8h-1.3v0.6h6.2v-0.6h-1.9
				V36.9h1.9c1.5,0,1.9,0.7,2,1.9V39H75v-2.7H63.5V39h0.6v-0.2c0.1-1.2,0.5-1.9,2-1.9C66.1,36.9,67.2,36.9,67.2,36.9z"/>
			<path style="fill:#FFFFFF;" d="M95.6,44.7l1.8-5l1.7,5H95.6z M95.5,49.8h-1.8l1.8-4.5h3.9l1.4,4.5h-1.4v0.6h5.7v-0.6h-0.3
				c-1.4,0-1.5,0.1-1.9-1.2l-4-12.4h-0.7L93.3,49c-0.3,0.8-0.6,0.8-1.8,0.8h-0.2v0.6h4.1L95.5,49.8L95.5,49.8z"/>
			<path style="fill:#FFFFFF;" d="M83.4,78.8l1.8-5l1.7,5H83.4z M83.3,83.9h-1.8l1.8-4.5h3.9l1.4,4.5H87v0.6h5.7v-0.6h-0.3
				c-1.4,0-1.5,0.1-1.9-1.2l-4-12.4h-0.7L81,83c-0.3,0.8-0.6,0.8-1.8,0.8H79v0.6h4.1v-0.5H83.3z"/>
			<path style="fill:#FFFFFF;" d="M106.7,49.8h-0.8v0.6h4.2v-0.6h-1.8V37.9l8.4,12.6h0.6V36.9h1.3v-0.6H115v0.6h0.8
				c0.7,0,0.8,0.2,0.8,0.5l-0.1,8.2l-6.5-9.3h-4.4v0.6h0.7c0.8,0,1.2,0.1,1.2,1V49C107.7,49.7,107.6,49.7,106.7,49.8"/>
			<path style="fill:#FFFFFF;" d="M95.3,66.9h-0.8v0.6h4.2v-0.6H97v-12l8.4,12.6h0.6V53.9h1.3v-0.6h-3.6v0.6h0.8
				c0.7,0,0.8,0.2,0.8,0.5l-0.1,8.2l-6.5-9.3h-4.4v0.6H95c0.8,0,1.2,0.1,1.2,1V66C96.4,66.7,96.2,66.8,95.3,66.9"/>
			<path style="fill:#FFFFFF;" d="M134.5,36.9v-0.6H129v0.6h0.7c0.7,0,0.9,0.1,0.9,0.8v5h-6.3v-5.8h1.5v-0.6h-5.5v0.6h0.7
				c0.7,0,0.8,0.2,0.8,0.8V49c0,0.8-0.1,0.8-0.8,0.8h-0.6v0.6h5.4v-0.6h-1.5v-6.5h6.3V49c0,0.8-0.1,0.8-0.9,0.8H129v0.6h5.5v-0.6
				h-1.6V36.9H134.5z"/>
			<path style="fill:#FFFFFF;" d="M77.7,64.6h-0.6v0.1c-0.4,1.4-0.9,2.1-1.9,2.1c-1.5,0-3.8,0-4.6,0V53.9h1.9v-0.6h-6.2v0.6H67
				c0.8,0,1.2,0.2,1.2,0.9v11.1c0,0.8-0.4,1-1.3,1h-0.5v0.6h11.4L77.7,64.6L77.7,64.6z"/>
			<path style="fill:#FFFFFF;" d="M116.8,61.7h0.9c0.7,0,0.8,0.1,0.8,0.8v2.7c0,0.6-0.1,0.9-0.3,1c-0.3,0.3-1.1,0.7-2.2,0.7
				c-2.9,0-4.7-2.6-4.7-7c0-2.1,0.5-3.8,1.5-4.9c1.1-1.2,2.4-1.4,3.3-1.4c1.9,0,3.1,1,3.5,2.7v0.2h0.6l-0.1-2.9H120
				c-1.4-0.4-2.8-0.7-4-0.7c-4.3,0-7.3,2.8-7.3,7c0,2.2,0.7,4.2,2,5.5s3.2,2.1,5,2.1h0.1c1.8,0,3.7-0.7,5-1.4L121,66l-0.1-0.2
				c0-0.1-0.1-0.2-0.1-0.4c0-0.3,0-2.7,0-3.9h1.8v-0.6h-5.8C116.8,60.9,116.8,61.7,116.8,61.7z"/>
			<path style="fill:#FFFFFF;" d="M70.6,77.5h1.3c1.6,0,3.3,0.5,3.3,3.4c0,1-0.4,2.1-1,2.5c-0.4,0.3-0.9,0.6-2.1,0.6h-1.4v-6.5H70.6
				z M74.4,74.3c0,1.6-0.7,2.6-2.3,2.6c-0.3,0-1.3,0-1.4,0V71h1.2c0.9,0,1.5,0.2,1.9,0.7C74.3,72.5,74.4,73.5,74.4,74.3 M74.3,77.2
				c0.6-0.2,1.2-0.6,1.6-1c0.7-0.7,1-1.6,1-2.4c0-1.2-0.5-2.2-1.4-2.9c-0.7-0.5-1.8-0.6-2.8-0.6h-6.3V71h1c0.7,0,0.8,0.1,0.8,0.8V83
				c0,0.7-0.1,0.8-0.8,0.8h-1v0.6H73c1.1,0,2.2-0.1,3-0.5c1.2-0.8,1.7-1.8,1.7-3.2C77.7,78.5,75.6,77.6,74.3,77.2"/>
			<path style="fill:#FFFFFF;" d="M102,71h1.5l-2.9,6.2L97.7,71h1.5v-0.6h-5.6V71h0.5c0.8,0,1,0.1,1.4,1.1c0.1,0.2,0.2,0.5,0.4,0.8
				l2.8,5.4v5.3c0,0.3-0.2,0.5-0.7,0.5h-1.2v0.6h6v-0.6H101v-6l2.6-5.7c0.5-1.2,0.7-1.2,1.9-1.2h0.3v-0.6H102V71z"/>
			<path style="fill:#FFFFFF;" d="M90.4,36.9v-0.6h-5.5v0.6h0.7c0.7,0,0.9,0.1,0.9,0.8v5h-6.3v-5.8h1.5v-0.6h-5.5v0.6h0.7
				c0.7,0,0.8,0.2,0.8,0.8V49c0,0.8-0.1,0.8-0.8,0.8h-0.6v0.6h5.4v-0.6h-1.5v-6.5h6.3V49c0,0.8-0.1,0.8-0.9,0.8h-0.7v0.6h5.5v-0.6
				h-1.6V36.9H90.4z"/>
			<polygon style="fill:#FFFFFF;" points="67.3,90.2 66.7,89.3 66.6,89.5 66.6,90.2 66.3,90.2 66.3,88.2 66.6,88.2 66.6,89.2 
				67.2,88.2 67.5,88.2 66.8,89.1 67.5,90.2 			"/>
			<polygon style="fill:#FFFFFF;" points="68.1,90.2 68.1,88.2 69,88.2 69,88.4 68.3,88.4 68.3,89 68.9,89 68.9,89.3 68.3,89.3 
				68.3,90 69,90 69,90.2 			"/>
			<path style="fill:#FFFFFF;" d="M71.6,88.7c0-0.1-0.1-0.2-0.2-0.2c-0.1-0.1-0.1-0.1-0.3-0.1c-0.2,0-0.3,0.1-0.4,0.2
				s-0.1,0.3-0.1,0.6c0,0.3,0,0.5,0.1,0.6s0.2,0.2,0.4,0.2c0.1,0,0.1,0,0.2,0s0.1,0,0.2-0.1v-0.5h-0.4v-0.2h0.6v0.9
				c-0.1,0.1-0.2,0.1-0.3,0.1c-0.1,0-0.2,0.1-0.3,0.1c-0.2,0-0.4-0.1-0.5-0.3c-0.1-0.2-0.2-0.4-0.2-0.8s0.1-0.6,0.2-0.8
				c0.1-0.2,0.3-0.3,0.5-0.3c0.1,0,0.2,0,0.3,0.1c0.1,0.1,0.2,0.2,0.2,0.3L71.6,88.7z"/>
			<path style="fill:#FFFFFF;" d="M72.7,89.4h0.5l-0.3-1L72.7,89.4z M72.2,90.2l0.6-2h0.3l0.6,2h-0.2l-0.1-0.5h-0.7l-0.1,0.5H72.2z"
				/>
			<path style="fill:#FFFFFF;" d="M76.8,89.6c0-0.1,0-0.1,0-0.2l-0.1-0.1c-0.1,0-0.1,0-0.3,0h-0.3V90h0.2c0.1,0,0.2,0,0.3,0
				c0.1,0,0.1-0.1,0.1-0.1C76.8,89.8,76.8,89.7,76.8,89.6 M76.7,88.7c0-0.1,0-0.2-0.1-0.2s-0.1-0.1-0.3-0.1H76V89h0.2
				c0.1,0,0.2,0,0.3-0.1C76.7,88.9,76.7,88.8,76.7,88.7 M77.1,89.6c0,0.2-0.1,0.4-0.2,0.4c-0.1,0.1-0.3,0.1-0.5,0.1h-0.5v-2h0.5
				c0.2,0,0.3,0,0.4,0.1s0.1,0.2,0.1,0.4c0,0.1,0,0.2-0.1,0.3c0,0.1-0.1,0.1-0.2,0.1c0.1,0,0.2,0.1,0.3,0.1
				C77,89.3,77.1,89.5,77.1,89.6"/>
			<polygon style="fill:#FFFFFF;" points="78.2,90.2 77.6,90.2 77.6,90 77.8,90 77.8,88.4 77.6,88.4 77.6,88.2 78.2,88.2 78.2,88.4 
				78,88.4 78,90 78.2,90 			"/>
			<polygon style="fill:#FFFFFF;" points="79.7,90.2 79,88.5 79,90.2 78.8,90.2 78.8,88.2 79.1,88.2 79.8,89.8 79.8,88.2 80,88.2 
				80,90.2 			"/>
			<polygon style="fill:#FFFFFF;" points="81.6,90.2 81.6,89.3 80.9,89.3 80.9,90.2 80.7,90.2 80.7,88.2 80.9,88.2 80.9,89 81.6,89 
				81.6,88.2 81.8,88.2 81.8,90.2 			"/>
			<polygon style="fill:#FFFFFF;" points="84,88.4 84,90.2 83.8,90.2 83.8,88.4 83.2,88.4 83.2,88.2 84.5,88.2 84.5,88.4 			"/>
			<polygon style="fill:#FFFFFF;" points="86,90.2 86,89.3 85.2,89.3 85.2,90.2 85,90.2 85,88.2 85.2,88.2 85.2,89 86,89 86,88.2 
				86.2,88.2 86.2,90.2 			"/>
			<path style="fill:#FFFFFF;" d="M88.1,89.4c0,0.2,0,0.4-0.1,0.5c0,0.1-0.1,0.2-0.2,0.3c-0.1,0.1-0.2,0.1-0.4,0.1
				c-0.2,0-0.3,0-0.4-0.1s-0.2-0.2-0.2-0.3c0-0.1-0.1-0.3-0.1-0.5v-1.2h0.2v1.1c0,0.2,0,0.3,0,0.4s0.1,0.2,0.1,0.2
				c0.1,0,0.1,0.1,0.2,0.1s0.2,0,0.2-0.1c0.1,0,0.1-0.1,0.1-0.2s0-0.2,0-0.4v-1.1h0.2v1.2H88.1z"/>
			<path style="fill:#FFFFFF;" d="M89,89.4h0.5l-0.3-1L89,89.4z M88.5,90.2l0.6-2h0.3l0.6,2h-0.2l-0.1-0.5H89l-0.1,0.5H88.5z"/>
			<polygon style="fill:#FFFFFF;" points="91.4,90.2 90.7,88.5 90.7,90.2 90.4,90.2 90.4,88.2 90.8,88.2 91.4,89.8 91.4,88.2 
				91.6,88.2 91.6,90.2 			"/>
			<polygon style="fill:#FFFFFF;" points="94.7,90.2 94.4,90.2 93.9,88.2 94.2,88.2 94.6,89.9 95,88.2 95.3,88.2 			"/>
			<polygon style="fill:#FFFFFF;" points="96.3,90.2 95.7,90.2 95.7,90 95.9,90 95.9,88.4 95.7,88.4 95.7,88.2 96.3,88.2 96.3,88.4 
				96.1,88.4 96.1,90 96.3,90 			"/>
			<polygon style="fill:#FFFFFF;" points="96.9,90.2 96.9,88.2 97.9,88.2 97.9,88.4 97.1,88.4 97.1,89 97.8,89 97.8,89.3 97.1,89.3 
				97.1,90 97.9,90 97.9,90.2 			"/>
			<polygon style="fill:#FFFFFF;" points="99.1,88.4 99.1,90.2 98.9,90.2 98.9,88.4 98.3,88.4 98.3,88.2 99.6,88.2 99.6,88.4 			"/>
			<polygon style="fill:#FFFFFF;" points="102,90.2 101.2,88.5 101.2,90.2 101,90.2 101,88.2 101.3,88.2 102,89.8 102,88.2 
				102.2,88.2 102.2,90.2 			"/>
			<path style="fill:#FFFFFF;" d="M103.2,89.4h0.5l-0.3-1L103.2,89.4z M102.7,90.2l0.6-2h0.3l0.6,2H104l-0.1-0.5h-0.7l-0.1,0.5
				H102.7z"/>
			<polygon style="fill:#FFFFFF;" points="105.9,90.2 105.9,88.5 105.4,89.7 105.3,89.7 104.8,88.5 104.8,90.2 104.6,90.2 
				104.6,88.2 104.9,88.2 105.4,89.3 105.8,88.2 106.1,88.2 106.1,90.2 			"/>
			<path style="fill:#FFFFFF;" d="M75.1,89.3c0,0.2-0.1,0.3-0.3,0.3c-0.2,0-0.3-0.1-0.3-0.3c0-0.2,0.1-0.3,0.3-0.3
				C74.9,89,75.1,89.1,75.1,89.3"/>
			<path style="fill:#FFFFFF;" d="M93.1,89.3c0,0.2-0.1,0.3-0.3,0.3c-0.2,0-0.3-0.1-0.3-0.3c0-0.2,0.1-0.3,0.3-0.3
				S93.1,89.1,93.1,89.3"/>
		</g>
	</g>
</g>
</svg>
