<?xml version="1.0" encoding="utf-8"?>
<!-- Generator: Adobe Illustrator 23.0.1, SVG Export Plug-In . SVG Version: 6.00 Build 0)  -->
<svg version="1.1" id="Layer_1" xmlns="http://www.w3.org/2000/svg" xmlns:xlink="http://www.w3.org/1999/xlink" x="0px" y="0px"
	 width="283.5px" height="283.5px" viewBox="0 0 283.5 283.5" style="enable-background:new 0 0 283.5 283.5;" xml:space="preserve"
	>
<g>
	<path style="fill:#FFFFFF;" d="M193.8,179.7c-0.4,0-0.8,0-1.2,0c-24.2-0.3-41.6-9.4-58.4-18.1c-14.6-7.7-28.5-14.9-45.6-15.1
		c-0.2,0-0.5,0-0.7,0c-34.6,0-53.6,29-53.8,29.3l-7.2-4.6c0.9-1.4,21.8-33.3,61-33.3c0.3,0,0.6,0,0.9,0c19.2,0.2,34.6,8.3,49.5,16.1
		c15.9,8.3,32.3,16.9,54.5,17.1c0.4,0,0.7,0,1.1,0c40.3,0,54-27.6,54.6-28.8l7.8,3.7C255.5,147.3,239.7,179.7,193.8,179.7z"/>
	<path style="fill:#FFFFFF;" d="M194.2,145.6c-0.4,0-0.8,0-1.2,0c-24.2-0.3-41.6-9.4-58.4-18.1c-14.6-7.7-28.5-14.9-45.6-15.1
		c-0.2,0-0.5,0-0.7,0c-34.6,0-53.6,29-53.8,29.3l-7.2-4.6c0.9-1.4,21.8-33.3,61-33.3c0.3,0,0.6,0,0.9,0c19.2,0.2,34.6,8.3,49.5,16.1
		c15.9,8.3,32.3,16.9,54.5,17.1c41.3,0.6,55.1-27.6,55.7-28.8l7.8,3.7C255.9,113.2,240.1,145.6,194.2,145.6z"/>
</g>
</svg>
